<svg width="18" height="18" viewBox="0 0 18 18" fill="none" xmlns="http://www.w3.org/2000/svg">
<path d="M16.6879 3.58712L13.7196 0.618782C13.342 0.236347 12.8312 0.0148571 12.294 0.000720614C11.7568 -0.0134159 11.235 0.180899 10.8379 0.542949L8.67122 2.70962L7.27372 1.36628C7.17271 1.26527 7.0528 1.18515 6.92082 1.13048C6.78885 1.07582 6.6474 1.04768 6.50455 1.04768C6.21606 1.04768 5.93938 1.16229 5.73539 1.36628C5.63438 1.46729 5.55425 1.58721 5.49959 1.71918C5.44492 1.85115 5.41679 1.9926 5.41679 2.13545C5.41679 2.42394 5.53139 2.70062 5.73539 2.90462L7.07872 4.30212L1.08789 10.2929C0.737716 10.6461 0.519683 11.1089 0.470386 11.6038L0.0045532 16.1213C-0.0100404 16.28 0.0105487 16.4399 0.0648528 16.5897C0.119157 16.7395 0.205839 16.8755 0.31872 16.988C0.419947 17.0884 0.539997 17.1678 0.671988 17.2217C0.803979 17.2756 0.945313 17.3029 1.08789 17.3021H1.18539L5.70289 16.8905C6.19775 16.8412 6.66059 16.6231 7.01372 16.273L13.0587 10.228L14.4021 11.5713C14.5028 11.6728 14.6226 11.7534 14.7546 11.8084C14.8866 11.8634 15.0282 11.8917 15.1712 11.8917C15.3142 11.8917 15.4558 11.8634 15.5878 11.8084C15.7199 11.7534 15.8397 11.6728 15.9404 11.5713C16.0419 11.4706 16.1225 11.3508 16.1775 11.2187C16.2325 11.0867 16.2608 10.9451 16.2608 10.8021C16.2608 10.6591 16.2325 10.5175 16.1775 10.3855C16.1225 10.2535 16.0419 10.1337 15.9404 10.033L14.5971 8.68962L16.7637 6.52295C17.1421 6.12316 17.3467 5.58967 17.3324 5.03936C17.3182 4.48906 17.0864 3.96683 16.6879 3.58712ZM2.60455 11.8205L8.67122 5.77545L11.5854 8.70045L8.56289 11.723" fill="white"/>
</svg>
